<svg width="12" height="8" viewBox="0 0 12 8" fill="none" xmlns="http://www.w3.org/2000/svg">
<path d="M1.53524 4.49952H1.51913L8.37536 4.49952L6.22001 6.4144C6.11547 6.50831 6.05685 6.63493 6.05685 6.76686C6.05685 6.89878 6.11547 7.0254 6.22001 7.11931L6.55446 7.41357C6.65961 7.50629 6.80191 7.55835 6.95023 7.55835C7.09856 7.55835 7.24085 7.50629 7.346 7.41357L11.0411 4.13939C11.1455 4.04567 11.2041 3.91923 11.2041 3.78748C11.2041 3.65574 11.1455 3.5293 11.0411 3.43558L7.34723 0.160304C7.24209 0.0675755 7.09979 0.0155206 6.95147 0.0155206C6.80314 0.0155206 6.66085 0.0675755 6.5557 0.160304L6.22001 0.457857C6.16783 0.503881 6.1265 0.55865 6.09843 0.61897C6.07036 0.679291 6.05611 0.74396 6.05651 0.809211C6.05619 0.873473 6.07051 0.937129 6.09861 0.996369C6.1267 1.05561 6.168 1.10922 6.22001 1.15398L8.39889 3.07764L1.52656 3.07764C1.37571 3.08048 1.23202 3.13524 1.12591 3.23033C1.01979 3.32541 0.959574 3.45336 0.957999 3.5871V4.00763C0.961896 4.14043 1.02467 4.26653 1.13271 4.3586C1.24076 4.45067 1.38537 4.5013 1.53524 4.49952Z" fill="#8518FF"/>
</svg>
