<svg width="20" height="21" viewBox="0 0 20 21" fill="none" xmlns="http://www.w3.org/2000/svg">
<g clip-path="url(#clip0_1043_271)">
<path d="M4.34574 19.5374C2.34848 19.3643 0.78125 17.6884 0.78125 15.6463V9.07314C0.78125 7.85475 1.34977 6.70611 2.31855 5.96721L7.63105 1.91529C9.03012 0.848223 10.9699 0.848223 12.3689 1.91529L12.7283 2.18939C11.7689 2.09471 10.7819 2.35439 9.97484 2.96998L3.65672 7.78889C3.32164 8.04443 3.125 8.44174 3.125 8.86314V16.7009C3.125 17.818 3.59402 18.8255 4.34574 19.5374Z" fill="#CEE1F2"/>
<path d="M15.3125 20.334H4.6875C2.10281 20.334 0 18.2312 0 15.6465V9.07343C0 7.62065 0.689649 6.22733 1.84477 5.34628L7.15727 1.29437C8.83105 0.0177637 11.1689 0.0177637 12.8427 1.29437L18.1552 5.34628C19.3104 6.22729 20 7.62062 20 9.07343V15.6465C20 18.2312 17.8972 20.334 15.3125 20.334ZM10 1.89843C9.33129 1.89843 8.66285 2.11116 8.10484 2.53671L2.79234 6.58862C2.02227 7.17601 1.5625 8.10487 1.5625 9.07343V15.6465C1.5625 17.3696 2.96438 18.7715 4.6875 18.7715H15.3125C17.0356 18.7715 18.4375 17.3696 18.4375 15.6465V9.07343C18.4375 8.10491 17.9777 7.17601 17.2077 6.58866L11.8952 2.53675C11.3373 2.11128 10.6686 1.89843 10 1.89843Z" fill="#8518FF"/>
<path d="M12.8125 15.9197H7.22656C5.93422 15.9197 4.88281 14.8683 4.88281 13.5759V10.6462C4.88281 9.3539 5.93422 8.30249 7.22656 8.30249H8.31441C8.97988 8.30249 9.58648 8.56472 10.0361 8.99132C10.4843 8.5646 11.09 8.30249 11.7557 8.30249H12.8125C14.1048 8.30249 15.1562 9.3539 15.1562 10.6462V13.5759C15.1562 14.8683 14.1048 15.9197 12.8125 15.9197ZM7.22656 9.86499C6.79578 9.86499 6.44531 10.2155 6.44531 10.6462V13.5759C6.44531 14.0067 6.79578 14.3572 7.22656 14.3572H12.8125C13.2433 14.3572 13.5938 14.0067 13.5938 13.5759V10.6462C13.5938 10.2155 13.2433 9.86499 12.8125 9.86499H11.7557C11.2402 9.86499 10.8207 10.286 10.8203 10.8036V10.8056V12.2478C10.8203 12.6793 10.4705 13.0291 10.0391 13.0291C9.60758 13.0291 9.25781 12.6793 9.25781 12.2478V10.8065C9.25496 10.2873 8.83199 9.86499 8.31441 9.86499H7.22656Z" fill="#7B8BB2"/>
</g>
<defs>
<clipPath id="clip0_1043_271">
<rect width="20" height="20" fill="white" transform="translate(0 0.334961)"/>
</clipPath>
</defs>
</svg>
