<svg width="27" height="27" viewBox="0 0 27 27" fill="none" xmlns="http://www.w3.org/2000/svg">
<path d="M5.81447 11.5044C5.81447 7.43134 8.90279 4.0574 12.9336 3.46233C12.5181 3.40096 12.0925 3.36914 11.6592 3.36914C7.02359 3.36914 3.26562 7.01145 3.26562 11.5044C3.26562 15.9974 7.02359 19.6397 11.6592 19.6397C12.0925 19.6397 12.5181 19.6079 12.9336 19.5465C8.90283 18.9514 5.81447 15.5775 5.81447 11.5044Z" fill="#D7DDEC"/>
<path d="M11.5225 20.4917C6.40962 20.4917 2.25 16.46 2.25 11.5045C2.25 6.54895 6.40962 2.51733 11.5225 2.51733C16.6354 2.51733 20.795 6.54895 20.795 11.5045C20.795 16.46 16.6354 20.4917 11.5225 20.4917ZM11.5225 4.22106C7.37889 4.22106 4.00782 7.48838 4.00782 11.5045C4.00782 15.5206 7.37889 18.7879 11.5225 18.7879C15.6661 18.7879 19.0372 15.5206 19.0372 11.5045C19.0372 7.48838 15.6661 4.22106 11.5225 4.22106Z" fill="#7B8BB2"/>
<path d="M23.8711 24.342C23.6462 24.342 23.4213 24.2589 23.2496 24.0925L19.3165 20.2804C18.9733 19.9477 18.9733 19.4083 19.3165 19.0757C19.6598 18.743 20.2163 18.743 20.5595 19.0757L24.4926 22.8878C24.8358 23.2205 24.8358 23.7599 24.4926 24.0925C24.321 24.2588 24.096 24.342 23.8711 24.342Z" fill="#D7DDEC"/>
</svg>
